<svg id="Capa_1" data-name="Capa 1" xmlns="http://www.w3.org/2000/svg" viewBox="0 0 926 397"><defs><style>.cls-1{fill:#323643;}.cls-10,.cls-2{fill:#93deff;}.cls-3{fill:#536162;}.cls-4{opacity:0.47;}.cls-5{opacity:0.45;}.cls-6{fill:#606470;}.cls-7{opacity:0.35;}.cls-10,.cls-8{opacity:0.5;}.cls-9{fill:none;}</style></defs><title>Demantur_Imagotype-4</title><path class="cls-1" d="M392.50293,213.40039H331.18262q.69873,11.33936,7.76953,17.71a24.705,24.705,0,0,0,17.15039,6.37012q8.25879,0,13.79-3.85059a20.37707,20.37707,0,0,0,7.76953-10.29h13.7207a32.98594,32.98594,0,0,1-12.32031,17.99024q-9.24024,6.93018-22.96,6.92969a38.772,38.772,0,0,1-19.53027-4.89942,34.67986,34.67986,0,0,1-13.50977-13.93066A43.18786,43.18786,0,0,1,318.16211,208.5a43.81087,43.81087,0,0,1,4.76074-20.86035,33.41887,33.41887,0,0,1,13.37012-13.79,39.7951,39.7951,0,0,1,19.80957-4.83008,38.52076,38.52076,0,0,1,19.32031,4.76074,32.98113,32.98113,0,0,1,12.9502,13.08985,38.65572,38.65572,0,0,1,4.5498,18.83008A75.15268,75.15268,0,0,1,392.50293,213.40039Zm-15.96-22.89062a20.95112,20.95112,0,0,0-8.75-7.9795,27.2949,27.2949,0,0,0-12.25-2.73047,23.61543,23.61543,0,0,0-16.4502,6.16016q-6.79248,6.1626-7.7705,17.08008H379.7627A23.51592,23.51592,0,0,0,376.543,190.50977Z"/><path class="cls-1" d="M517.94141,172.58984A26.79377,26.79377,0,0,1,529.001,183.71973q4.05908,7.42236,4.06054,18.06054V247H520.46094V203.59961q0-11.47706-5.66992-17.56934-5.66895-6.09081-15.33008-6.08984-9.94189,0-15.81934,6.36914-5.87988,6.37353-5.87988,18.41016V247H465.16113V203.59961q0-11.47706-5.66992-17.56934-5.67041-6.09081-15.33008-6.08984-9.94189,0-15.81933,6.36914-5.87988,6.37353-5.88086,18.41016V247H409.72168V170.28027h12.73926v11.05957a25.19466,25.19466,0,0,1,10.15039-9.24023,30.74766,30.74766,0,0,1,14.07031-3.21973,33.22248,33.22248,0,0,1,17.08008,4.33985A26.50188,26.50188,0,0,1,474.82129,185.96a25.16609,25.16609,0,0,1,10.63965-12.59961,31.34281,31.34281,0,0,1,16.52051-4.48047A33.58621,33.58621,0,0,1,517.94141,172.58984Z"/><path class="cls-1" d="M553.92188,187.71a34.54164,34.54164,0,0,1,13.08984-13.79,35.90606,35.90606,0,0,1,18.5498-4.90039,34.05578,34.05578,0,0,1,17.5,4.34082,28.94385,28.94385,0,0,1,11.06055,10.91992v-14H627.002V247H614.12207V232.71973a30.02073,30.02073,0,0,1-11.27051,11.12988,33.71258,33.71258,0,0,1-17.42968,4.41016,34.7704,34.7704,0,0,1-18.48047-5.04,35.31347,35.31347,0,0,1-13.01953-14.13965,44.01321,44.01321,0,0,1-4.76075-20.71973A43.07962,43.07962,0,0,1,553.92188,187.71Zm56.70019,5.66992a24.75038,24.75038,0,0,0-9.45019-9.87011,26.7993,26.7993,0,0,0-26.11036-.06934,24.37088,24.37088,0,0,0-9.37988,9.7998,31.18749,31.18749,0,0,0-3.5,15.12012,31.90634,31.90634,0,0,0,3.5,15.33008,24.74742,24.74742,0,0,0,9.37988,9.93945,25.35319,25.35319,0,0,0,13.02051,3.42969,25.73547,25.73547,0,0,0,13.08985-3.42969,24.62068,24.62068,0,0,0,9.45019-9.93945,31.6276,31.6276,0,0,0,3.5-15.19043A31.22036,31.22036,0,0,0,610.62207,193.37988Z"/><path class="cls-1" d="M708.62109,177.34961q8.67921,8.47266,8.67969,24.43066V247H704.70117V203.59961q0-11.47706-5.74023-17.56934-5.7422-6.09081-15.67969-6.08984-10.0796,0-16.03027,6.2998-5.95167,6.3003-5.9502,18.33985V247H648.56152V170.28027h12.73926V181.2002a25.31248,25.31248,0,0,1,10.29-9.10059,31.93229,31.93229,0,0,1,14.35059-3.21973Q699.93946,168.87988,708.62109,177.34961Z"/><path class="cls-1" d="M753.70117,180.78027V226q0,5.60157,2.37988,7.91016,2.37891,2.31006,8.25977,2.30957h9.37988V247H762.24121q-10.6421,0-15.96-4.90039Q740.958,237.20117,740.96094,226V180.78027h-9.94043v-10.5h9.94043V150.96h12.74023v19.32031H773.7207v10.5Z"/><path class="cls-1" d="M857.16113,170.28027V247H844.4209V235.66016a24.80513,24.80513,0,0,1-10.15039,9.16992,31.38118,31.38118,0,0,1-14.34961,3.29,34.38553,34.38553,0,0,1-16.09961-3.71,26.942,26.942,0,0,1-11.27051-11.12989q-4.13085-7.41943-4.12988-18.06054V170.28027h12.59961V213.54q0,11.33936,5.74023,17.42969,5.73925,6.09081,15.67969,6.08984,10.21875,0,16.10059-6.2998,5.87988-6.3003,5.87988-18.33985V170.28027Z"/><path class="cls-1" d="M901.05078,172.51953q6.22705-3.63867,15.18945-3.63965V182.04h-3.35937q-21.4204,0-21.4209,23.24023V247H878.7207V170.28027H891.46v12.46A24.45484,24.45484,0,0,1,901.05078,172.51953Z"/><path class="cls-2" d="M81.53317,92.0204l54.18421-77.38307C143.60405,3.374,156.14372-1.57936,163.5833,3.62989s9.0935,15.80235,3.67537,23.54023L143.06813,61.7178,93.324,132.75981"/><path class="cls-3" d="M93.324,132.75981,46.06492,200.25274c-7.88668,11.26334-20.42634,16.21669-27.86592,11.00744s-7.07325-18.68646.81406-29.94935L108.05679,54.15852"/><g class="cls-4"><path class="cls-3" d="M95.05679,130.15852,69.06927,167.25578c-7.88907,11.26167-20.43069,16.21365-27.87027,11.0044s-7.07325-18.68646.81406-29.94935L131.05679,21.15852"/></g><path class="cls-3" d="M79.04421,299.86187,19.00978,216.56865c-8.03977-11.15458-8.58962-24.6259-1.22188-29.93627s19.97388-.52875,28.01366,10.62583l73.30669,101.70748"/><path class="cls-1" d="M119.10825,298.96569l45.66427,63.35573c8.03977,11.15457,8.58962,24.62589,1.22188,29.93626s-19.97392.52878-28.01374-10.62576L41.05679,247.15852"/><g class="cls-5"><path class="cls-1" d="M99.05679,271.15852l44.3989,61.707c8.03061,11.16118,8.198,24.06279.372,28.67024s-20.80717-.74925-28.847-11.90379L18.05679,215.15852"/></g><path class="cls-6" d="M221.24656,266.47034l49.47082-70.65165c7.88667-11.26334,20.42634-16.21669,27.86592-11.00744s7.0776,18.68951-.80439,29.95613L210.05679,340.15852"/><path class="cls-1" d="M217.05679,330.15852l-35.975,51.28743c-7.896,11.25682-20.44324,16.20484-27.88282,10.99559s-7.07436-18.68724.81158-29.95109l87.04621-124.33193"/><g class="cls-7"><path class="cls-1" d="M238.05679,300.15852l-32.643,46.53357c-7.89638,11.25654-20.43205,16.19143-27.857,10.96643s-7.04855-18.71635.83656-29.98079l83.66344-119.51921"/></g><path class="cls-6" d="M242.86368,103.32091l54.90884,76.18187c8.03977,11.15457,8.58962,24.62589,1.22188,29.93627s-19.97388.52875-28.01366-10.62583L202.209,103.39765"/><path class="cls-2" d="M202.209,103.39765,161.41838,46.80373l-19.32207-26.8079c-2.58736-3.58978,1.32385-10.87171,8.69159-16.18208s19.97442-.52914,28.01485,10.625l81.254,112.71981"/><g class="cls-8"><path class="cls-2" d="M202.05679,103.15852,186.58774,81.50186,167.05679,54.15852c-2.75-3.85.85-11.5,8-17s19.5892-.88161,27.64266,10.26308l84.35734,116.73692"/></g><path class="cls-9" d="M114.68994,137.01a8.96058,8.96058,0,0,0-8.6499,8.24A9.17141,9.17141,0,0,1,114.68994,137.01ZM106.04,249.75a8.96063,8.96063,0,0,0,8.6499,8.24A9.17146,9.17146,0,0,1,106.04,249.75Z"/><path class="cls-2" d="M222.93994,199.19a58.34725,58.34725,0,0,1-5.65991,25.7,53.82545,53.82545,0,0,1-15.63,19.46,58.77286,58.77286,0,0,1-21.6,10.69q-10.39507,2.64-34.41,2.92a9.15464,9.15464,0,0,0,8.36-9.12v-4.68a9.15858,9.15858,0,0,0-9.15991-9.16H146.98q19.17,0,27.81006-3.61a30.68281,30.68281,0,0,0,14.12988-12.13q5.49024-8.535,5.49-20.99,0-19.185-13.07983-29.76Q169.55493,159,143.49,159H134V146.16a9.15858,9.15858,0,0,0-9.15991-9.16H139.27q32.15991,0,47.80005,6.54a58.05386,58.05386,0,0,1,25.75,21.26Q222.94507,179.53,222.93994,199.19Z"/><path class="cls-3" d="M134,146.16V248.84a9.15863,9.15863,0,0,1-9.15991,9.16h-9.68018c-.15991,0-.31982,0-.47-.01a9.17146,9.17146,0,0,1-8.6499-8.24c-.01-.15-.02-.29-.03-.44s-.01-.31-.01-.47V146.16c0-.16,0-.32.01-.47s.02-.29.03-.44a9.17141,9.17141,0,0,1,8.6499-8.24c.15015-.01.31006-.01.47-.01h9.68018A9.15858,9.15858,0,0,1,134,146.16Z"/><rect class="cls-10" x="119" y="124" width="22" height="48" rx="9.15625" transform="translate(-18 278) rotate(-90)"/><path class="cls-2" d="M155,244.164v4.682c0,4.79213-3.31194,8.72383-7.524,9.124q-1.26907.03-2.592.03H144.821c-4.356-.25011-7.821-4.25185-7.821-9.154v-4.682c0-5.0622,3.69-9.164,8.24392-9.164h1.51216C151.31,235,155,239.10176,155,244.164Z"/></svg>