<svg id="Capa_1" data-name="Capa 1" xmlns="http://www.w3.org/2000/svg" viewBox="0 0 982 397"><defs><style>.cls-1{fill:#323643;}.cls-10,.cls-2{fill:#93deff;}.cls-3{fill:#536162;}.cls-4{opacity:0.47;}.cls-5{opacity:0.45;}.cls-6{fill:#606470;}.cls-7{opacity:0.35;}.cls-10,.cls-8{opacity:0.5;}.cls-9{fill:none;}</style></defs><title>Demantur_Imagotype-3</title><path class="cls-1" d="M369.51172,149.95117a39.75728,39.75728,0,0,1,17.02441,16.16016q5.91651,10.50732,5.918,24.7373,0,14.23389-5.918,24.67188a39.03169,39.03169,0,0,1-17.02441,15.96q-11.10645,5.521-26.26758,5.51953H314.38379V144.29883h28.86035Q358.40674,144.29883,369.51172,149.95117Zm1.13086,67.56446q9.44238-9.5083,9.44336-26.667,0-17.28809-9.50977-26.999-9.51123-9.70605-27.332-9.709H326.48633v72.88476h16.75781Q361.20019,227.02539,370.64258,217.51563Z"/><path class="cls-1" d="M474.51367,205.08008h-58.2539q.66357,10.77246,7.38183,16.82422a23.46414,23.46414,0,0,0,16.292,6.05175q7.84571,0,13.10059-3.65722a19.36551,19.36551,0,0,0,7.38184-9.77539H473.4502a31.33829,31.33829,0,0,1-11.70411,17.08984q-8.77881,6.58447-21.8125,6.584a36.82492,36.82492,0,0,1-18.55273-4.65528,32.94147,32.94147,0,0,1-12.835-13.2334,41.02751,41.02751,0,0,1-4.65527-19.88379,41.61821,41.61821,0,0,1,4.52246-19.8164,31.73331,31.73331,0,0,1,12.70117-13.10059,37.799,37.799,0,0,1,18.81933-4.58886,36.59123,36.59123,0,0,1,18.3545,4.52246A31.332,31.332,0,0,1,470.59082,179.877a36.7199,36.7199,0,0,1,4.32227,17.8877A71.03689,71.03689,0,0,1,474.51367,205.08008ZM459.35156,183.335a19.89454,19.89454,0,0,0-8.3125-7.58105,25.91952,25.91952,0,0,0-11.63672-2.59375,22.4355,22.4355,0,0,0-15.62793,5.85156q-6.45262,5.855-7.38183,16.22656h46.01855A22.32845,22.32845,0,0,0,459.35156,183.335Z"/><path class="cls-1" d="M593.68066,166.31055a25.45,25.45,0,0,1,10.50684,10.57324q3.85694,7.05175,3.85742,17.15723V237H596.0752V195.76953q0-10.90283-5.38672-16.6914-5.38623-5.78467-14.56348-5.78516-9.4453,0-15.0293,6.05176-5.58544,6.05273-5.58593,17.48925V237H543.54V195.76953q0-10.90283-5.38672-16.6914-5.38623-5.78467-14.56348-5.78516-9.44531,0-15.02929,6.05176-5.58546,6.05273-5.58594,17.48925V237H490.87207V164.11621h12.10254v10.50684a23.9349,23.9349,0,0,1,9.64258-8.77832,29.21394,29.21394,0,0,1,13.36621-3.0586,31.56188,31.56188,0,0,1,16.22656,4.123,25.17386,25.17386,0,0,1,10.50684,12.10254A23.91015,23.91015,0,0,1,562.8252,167.042a29.77108,29.77108,0,0,1,15.69335-4.25586A31.899,31.899,0,0,1,593.68066,166.31055Z"/><path class="cls-1" d="M627.8623,180.6748a32.80228,32.80228,0,0,1,12.43555-13.10058,34.10878,34.10878,0,0,1,17.62207-4.65527,32.35964,32.35964,0,0,1,16.625,4.123,27.486,27.486,0,0,1,10.50684,10.374V164.11621h12.23633V237H685.05176V223.43359a28.51575,28.51575,0,0,1-10.70606,10.57422,32.03118,32.03118,0,0,1-16.55859,4.18946,33.03747,33.03747,0,0,1-17.55566-4.78809,33.54917,33.54917,0,0,1-12.36915-13.43359,41.817,41.817,0,0,1-4.52246-19.6836A40.93084,40.93084,0,0,1,627.8623,180.6748Zm53.86524,5.38575a23.5101,23.5101,0,0,0-8.97754-9.376,25.45687,25.45687,0,0,0-24.80469-.06641,23.14949,23.14949,0,0,0-8.91113,9.30957A29.62484,29.62484,0,0,0,635.709,200.292a30.30289,30.30289,0,0,0,3.3252,14.56348,23.50356,23.50356,0,0,0,8.91113,9.44336,24.08244,24.08244,0,0,0,12.36914,3.25781A24.44892,24.44892,0,0,0,672.75,224.29883a23.38757,23.38757,0,0,0,8.97754-9.44336,30.03826,30.03826,0,0,0,3.32422-14.43067A29.66022,29.66022,0,0,0,681.72754,186.06055Z"/><path class="cls-1" d="M774.82617,170.832q8.24561,8.04932,8.2461,23.209V237H771.10254V195.76953q0-10.90283-5.45313-16.6914-5.45506-5.78467-14.89648-5.78516-9.57568,0-15.22852,5.98535-5.6543,5.98389-5.65234,17.42285V237H717.76953V164.11621h12.10254v10.374a24.04045,24.04045,0,0,1,9.77539-8.6455,30.33515,30.33515,0,0,1,13.63281-3.0586Q766.57813,162.78613,774.82617,170.832Z"/><path class="cls-1" d="M817.65234,174.09082v42.959q0,5.32179,2.26075,7.51465,2.26025,2.19434,7.84765,2.19434h8.91114V237H825.76563q-10.10889,0-15.16211-4.65527-5.05665-4.65381-5.05372-15.29493v-42.959h-9.44335v-9.97461h9.44335V145.76172h12.10254v18.35449h19.01954v9.97461Z"/><path class="cls-1" d="M915.93945,164.11621V237H903.83691V226.22656a23.556,23.556,0,0,1-9.64257,8.71192,29.81167,29.81167,0,0,1-13.63282,3.126,32.6596,32.6596,0,0,1-15.29492-3.52539,25.59643,25.59643,0,0,1-10.707-10.57324q-3.92432-7.04736-3.92285-17.15723V164.11621h11.96973v41.09668q0,10.77246,5.45312,16.55859,5.45216,5.78614,14.89551,5.78516,9.70752,0,15.2959-5.98437,5.58544-5.98536,5.58593-17.42286v-40.0332Z"/><path class="cls-1" d="M957.63477,166.24414a28.162,28.162,0,0,1,14.43066-3.458v12.502H968.874q-20.3496,0-20.34961,22.07812V237H936.42188V164.11621h12.10253v11.83692A23.22133,23.22133,0,0,1,957.63477,166.24414Z"/><path class="cls-2" d="M76.53317,91.0204l54.18421-77.38307C138.60405,2.374,151.14372-2.57936,158.5833,2.62989s9.0935,15.80235,3.67537,23.54023L138.06813,60.7178,88.324,131.75981"/><path class="cls-3" d="M88.324,131.75981,41.06492,199.25274c-7.88668,11.26334-20.42634,16.21669-27.86592,11.00744s-7.07325-18.68646.81406-29.94935L103.05679,53.15852"/><g class="cls-4"><path class="cls-3" d="M90.05679,129.15852,64.06927,166.25578c-7.88907,11.26167-20.43069,16.21365-27.87027,11.0044s-7.07325-18.68646.81406-29.94935L126.05679,20.15852"/></g><path class="cls-3" d="M74.04421,298.86187,14.00978,215.56865C5.97,204.41407,5.42016,190.94275,12.7879,185.63238s19.97388-.52875,28.01366,10.62583l73.30669,101.70748"/><path class="cls-1" d="M114.10825,297.96569l45.66427,63.35573c8.03977,11.15457,8.58962,24.62589,1.22188,29.93626s-19.97392.52878-28.01374-10.62576L36.05679,246.15852"/><g class="cls-5"><path class="cls-1" d="M94.05679,270.15852l44.3989,61.707c8.03061,11.16118,8.198,24.06279.372,28.67024s-20.80717-.74925-28.847-11.90379L13.05679,214.15852"/></g><path class="cls-6" d="M216.24656,265.47034l49.47082-70.65165c7.88667-11.26334,20.42634-16.21669,27.86592-11.00744s7.0776,18.68951-.80439,29.95613L205.05679,339.15852"/><path class="cls-1" d="M212.05679,329.15852l-35.975,51.28743c-7.896,11.25682-20.44324,16.20484-27.88282,10.99559s-7.07436-18.68724.81158-29.95109l87.04621-124.33193"/><g class="cls-7"><path class="cls-1" d="M233.05679,299.15852l-32.643,46.53357c-7.89638,11.25654-20.43205,16.19143-27.857,10.96643s-7.04855-18.71635.83656-29.98079l83.66344-119.51921"/></g><path class="cls-6" d="M237.86368,102.32091l54.90884,76.18187c8.03977,11.15457,8.58962,24.62589,1.22188,29.93627s-19.97388.52875-28.01366-10.62583L197.209,102.39765"/><path class="cls-2" d="M197.209,102.39765,156.41838,45.80373l-19.32207-26.8079c-2.58736-3.58978,1.32385-10.87171,8.69159-16.18208s19.97442-.52914,28.01485,10.625l81.254,112.71981"/><g class="cls-8"><path class="cls-2" d="M197.05679,102.15852,181.58774,80.50186,162.05679,53.15852c-2.75-3.85.85-11.5,8-17s19.5892-.88161,27.64266,10.26308l84.35734,116.73692"/></g><path class="cls-9" d="M109.68994,136.01a8.96058,8.96058,0,0,0-8.6499,8.24A9.17141,9.17141,0,0,1,109.68994,136.01ZM101.04,248.75a8.96063,8.96063,0,0,0,8.6499,8.24A9.17146,9.17146,0,0,1,101.04,248.75Z"/><path class="cls-2" d="M217.93994,198.19a58.34725,58.34725,0,0,1-5.65991,25.7,53.82545,53.82545,0,0,1-15.63,19.46,58.77286,58.77286,0,0,1-21.6,10.69q-10.39507,2.64-34.41,2.92a9.15464,9.15464,0,0,0,8.36-9.12v-4.68a9.15858,9.15858,0,0,0-9.15991-9.16H141.98q19.17,0,27.81006-3.61a30.68281,30.68281,0,0,0,14.12988-12.13q5.49024-8.535,5.49-20.99,0-19.185-13.07983-29.76Q164.55493,158,138.49,158H129V145.16a9.15858,9.15858,0,0,0-9.15991-9.16H134.27q32.15991,0,47.80005,6.54a58.05386,58.05386,0,0,1,25.75,21.26Q217.94507,178.53,217.93994,198.19Z"/><path class="cls-3" d="M129,145.16V247.84a9.15863,9.15863,0,0,1-9.15991,9.16h-9.68018c-.15991,0-.31982,0-.47-.01a9.17146,9.17146,0,0,1-8.6499-8.24c-.01-.15-.02-.29-.03-.44s-.01-.31-.01-.47V145.16c0-.16,0-.32.01-.47s.02-.29.03-.44a9.17141,9.17141,0,0,1,8.6499-8.24c.15015-.01.31006-.01.47-.01h9.68018A9.15858,9.15858,0,0,1,129,145.16Z"/><rect class="cls-10" x="114" y="123" width="22" height="48" rx="9.15625" transform="translate(-22 272) rotate(-90)"/><path class="cls-2" d="M150,243.164v4.682c0,4.79213-3.31194,8.72383-7.524,9.124q-1.26907.03-2.592.03H139.821c-4.356-.25011-7.821-4.25185-7.821-9.154v-4.682c0-5.0622,3.69-9.164,8.24392-9.164h1.51216C146.31,234,150,238.10176,150,243.164Z"/></svg>