<svg id="Capa_1" data-name="Capa 1" xmlns="http://www.w3.org/2000/svg" viewBox="0 0 457 488"><defs><style>.cls-1,.cls-8{fill:#fff;}.cls-2,.cls-8{opacity:0.5;}.cls-3{fill:#536162;}.cls-4{opacity:0.45;}.cls-5{fill:#323643;}.cls-6{opacity:0.35;}.cls-7{fill:#a09d9d;}</style></defs><title>Demantur_Imagotype-1_White</title><path class="cls-1" d="M151.47638,97.86187,205.66059,20.4788c7.88668-11.26334,20.42634-16.21669,27.86592-11.00744s9.0935,15.80236,3.67537,23.54024L213.01134,67.55927l-49.74415,71.042"/><g class="cls-2"><path class="cls-3" d="M165,136l-25.98752,37.09726c-7.88907,11.26167-20.43069,16.21364-27.87027,11.00439s-7.07325-18.68645.81406-29.94935L201,27"/></g><path class="cls-1" d="M163.26719,138.60128l-47.25906,67.49294c-7.88667,11.26334-20.42634,16.21668-27.86592,11.00743s-7.07325-18.68645.81406-29.94935L178,60"/><path class="cls-1" d="M148.98742,305.70335,88.953,222.41013c-8.03977-11.15458-8.58962-24.6259-1.22188-29.93627s19.97388-.52875,28.01366,10.62582l73.30669,101.70749"/><g class="cls-4"><path class="cls-5" d="M169,277l44.3989,61.707c8.03061,11.16118,8.198,24.06279.372,28.67024s-20.80717-.74926-28.847-11.9038L88,221"/></g><path class="cls-1" d="M189.05146,304.80717l45.66427,63.35572c8.03977,11.15458,8.58962,24.6259,1.22188,29.93627s-19.97392.52877-28.01374-10.62577L111,253"/><path class="cls-1" d="M291.18977,272.31182l49.47082-70.65166c7.88668-11.26334,20.42634-16.21668,27.86592-11.00743s7.0776,18.6895-.80439,29.95612L280,346"/><g class="cls-6"><path class="cls-5" d="M308,306l-32.64295,46.53356C267.46067,363.7901,254.925,368.725,247.5,363.5s-7.04855-18.71636.83656-29.9808L332,214"/></g><path class="cls-1" d="M287,336l-35.975,51.28742c-7.896,11.25683-20.44324,16.20485-27.88282,10.9956s-7.07436-18.68724.81159-29.95109L311,244"/><path class="cls-1" d="M312.80689,109.16239l54.90884,76.18186c8.03977,11.15458,8.58962,24.6259,1.22188,29.93627s-19.97388.52875-28.01366-10.62582l-68.77173-95.41558"/><g class="cls-4"><path class="cls-5" d="M272,109,256.531,87.34334,237,60c-2.75-3.85.85-11.5,8-17s19.5892-.88161,27.64266,10.26308L357,170"/></g><path class="cls-1" d="M272.15222,109.23912,231.36159,52.64521,212.03952,25.8373c-2.58736-3.58977,1.32385-10.87171,8.69159-16.18208s19.97442-.52914,28.01485,10.625L330,133"/><path class="cls-1" d="M184.68994,143.01a8.96058,8.96058,0,0,0-8.6499,8.24A9.17141,9.17141,0,0,1,184.68994,143.01ZM176.04,255.75a8.96063,8.96063,0,0,0,8.6499,8.24A9.17146,9.17146,0,0,1,176.04,255.75Z"/><path class="cls-1" d="M292.93994,205.19a58.34725,58.34725,0,0,1-5.65991,25.7,53.82545,53.82545,0,0,1-15.63,19.46,58.77286,58.77286,0,0,1-21.6,10.69q-10.39507,2.64-34.41,2.92a9.15464,9.15464,0,0,0,8.36-9.12v-4.68a9.15858,9.15858,0,0,0-9.15991-9.16H216.98q19.17,0,27.81006-3.61a30.68281,30.68281,0,0,0,14.12988-12.13q5.49024-8.535,5.49-20.99,0-19.185-13.07983-29.76Q239.55493,165,213.49,165H204V152.16a9.15858,9.15858,0,0,0-9.15991-9.16H209.27q32.15991,0,47.80005,6.54a58.05386,58.05386,0,0,1,25.75,21.26Q292.94507,185.53,292.93994,205.19Z"/><path class="cls-7" d="M204,152.16V254.84a9.15863,9.15863,0,0,1-9.15991,9.16h-9.68018c-.15991,0-.31982,0-.47-.01a9.17146,9.17146,0,0,1-8.6499-8.24c-.01-.15-.02-.29-.03-.44s-.01-.31-.01-.47V152.16c0-.16,0-.32.01-.47s.02-.29.03-.44a9.17141,9.17141,0,0,1,8.6499-8.24c.15015-.01.31006-.01.47-.01h9.68018A9.15858,9.15858,0,0,1,204,152.16Z"/><rect class="cls-8" x="189" y="130" width="22" height="48" rx="9.15625" transform="translate(46 354) rotate(-90)"/><path class="cls-1" d="M224,250.164v4.682c0,4.79213-2.76,8.72383-6.27,9.124q-1.05757.03-2.16.03h-.05255c-3.63-.25011-6.51746-4.25185-6.51746-9.154v-4.682c0-5.0622,3.075-9.164,6.86993-9.164h1.26014C220.925,241,224,245.10176,224,250.164Z"/><path class="cls-1" d="M44.43457,411.25293A26.89805,26.89805,0,0,1,55.9541,422.18848a36.89327,36.89327,0,0,1,0,33.43457,26.40387,26.40387,0,0,1-11.51953,10.7998,39.50064,39.50064,0,0,1-17.77539,3.73535H7.12891V407.42773H26.65918A38.74887,38.74887,0,0,1,44.43457,411.25293Zm.76465,45.7207q6.38964-6.43359,6.38965-18.0459,0-11.69823-6.43457-18.26953-6.43653-6.56835-18.49512-6.57031H15.31934V463.4082H26.65918Q38.80859,463.4082,45.19922,456.97363Z"/><path class="cls-1" d="M115.48828,448.55859H76.06836q.44825,7.28907,4.99512,11.38477a15.88086,15.88086,0,0,0,11.02441,4.09473,15.14534,15.14534,0,0,0,8.86524-2.47461,13.10689,13.10689,0,0,0,4.99511-6.61524h8.82031a21.20787,21.20787,0,0,1-7.92089,11.56543q-5.93994,4.4546-14.75977,4.4541a24.92236,24.92236,0,0,1-12.55469-3.14941,22.29,22.29,0,0,1-8.68554-8.95508,27.76442,27.76442,0,0,1-3.14942-13.45508,28.175,28.175,0,0,1,3.05957-13.41015,21.48353,21.48353,0,0,1,8.59571-8.86524,25.5858,25.5858,0,0,1,12.73437-3.10449,24.75854,24.75854,0,0,1,12.41992,3.05957,21.20348,21.20348,0,0,1,8.3252,8.415,24.84571,24.84571,0,0,1,2.9248,12.10547A48.28044,48.28044,0,0,1,115.48828,448.55859Zm-10.25976-14.71582a13.47047,13.47047,0,0,0-5.625-5.12988,17.54937,17.54937,0,0,0-7.875-1.75488,15.17889,15.17889,0,0,0-10.5752,3.96q-4.3667,3.9624-4.99512,10.98047h31.13965A15.12152,15.12152,0,0,0,105.22852,433.84277Z"/><path class="cls-1" d="M196.12793,422.32324a17.22317,17.22317,0,0,1,7.11035,7.15528,23.899,23.899,0,0,1,2.60938,11.60937V470.1582h-8.09961V442.25781q0-7.37841-3.64551-11.29492a12.814,12.814,0,0,0-9.85449-3.915,13.16819,13.16819,0,0,0-10.16992,4.0957q-3.78077,4.0957-3.78028,11.835V470.1582h-8.09961V442.25781q0-7.37841-3.64551-11.29492a12.814,12.814,0,0,0-9.85449-3.915,13.16677,13.16677,0,0,0-10.16992,4.0957q-3.78077,4.0957-3.78027,11.835V470.1582h-8.19043V420.83789h8.19043v7.11035a16.19331,16.19331,0,0,1,6.52441-5.94043,19.77641,19.77641,0,0,1,9.0459-2.06933,21.34956,21.34956,0,0,1,10.97949,2.79,17.03654,17.03654,0,0,1,7.11035,8.18945,16.17678,16.17678,0,0,1,6.83985-8.09961,20.14572,20.14572,0,0,1,10.62011-2.87988A21.59171,21.59171,0,0,1,196.12793,422.32324Z"/><path class="cls-1" d="M219.25781,432.043a22.20724,22.20724,0,0,1,8.415-8.86524,23.09135,23.09135,0,0,1,11.92481-3.14941,21.89206,21.89206,0,0,1,11.25,2.79,18.60288,18.60288,0,0,1,7.11035,7.01953v-9h8.28027V470.1582H257.958v-9.17968a19.30052,19.30052,0,0,1-7.24512,7.15429,21.668,21.668,0,0,1-11.20508,2.835,22.3545,22.3545,0,0,1-11.87988-3.23925,22.709,22.709,0,0,1-8.37012-9.08985,28.30949,28.30949,0,0,1-3.05957-13.32031A27.70848,27.70848,0,0,1,219.25781,432.043Zm36.4502,3.64551a15.90442,15.90442,0,0,0-6.0752-6.34571,17.234,17.234,0,0,0-16.78515-.04492,15.67166,15.67166,0,0,0-6.0293,6.30078,20.03945,20.03945,0,0,0-2.25,9.71973,20.50016,20.50016,0,0,0,2.25,9.85449,15.9118,15.9118,0,0,0,6.0293,6.39063,16.30377,16.30377,0,0,0,8.37011,2.20507,16.54377,16.54377,0,0,0,8.415-2.20507,15.82081,15.82081,0,0,0,6.0752-6.39063,20.32319,20.32319,0,0,0,2.25-9.76465A20.06145,20.06145,0,0,0,255.708,435.68848Z"/><path class="cls-1" d="M318.708,425.38281q5.57958,5.44629,5.58008,15.70508V470.1582H316.1875V442.25781q0-7.37841-3.68945-11.29492-3.69141-3.91406-10.08008-3.915-6.48047,0-10.30469,4.05078-3.82617,4.04883-3.82519,11.79V470.1582h-8.19043V420.83789h8.19043v7.02051a16.26506,16.26506,0,0,1,6.61523-5.85059,20.52715,20.52715,0,0,1,9.22461-2.06933Q313.12646,419.93848,318.708,425.38281Z"/><path class="cls-1" d="M347.6875,427.58789V456.6582q0,3.60058,1.53027,5.085,1.5293,1.48536,5.30957,1.48536h6.03028v6.92968h-7.37989q-6.84081,0-10.25976-3.15039-3.42187-3.14941-3.41992-10.34961V427.58789h-6.39063v-6.75h6.39063V408.418h8.18945v12.41992h12.87012v6.75Z"/><path class="cls-1" d="M414.19727,420.83789V470.1582h-8.18946v-7.29a15.94682,15.94682,0,0,1-6.52539,5.89551,20.1797,20.1797,0,0,1-9.22461,2.11426,22.10268,22.10268,0,0,1-10.35058-2.38477,17.32366,17.32366,0,0,1-7.24512-7.15527,23.54554,23.54554,0,0,1-2.6543-11.60937V420.83789h8.09961v27.81055q0,7.28906,3.68946,11.20508,3.68994,3.91406,10.08007,3.915,6.56983,0,10.35059-4.05078,3.7793-4.04883,3.78027-11.79V420.83789Z"/><path class="cls-1" d="M442.41211,422.27832a19.05541,19.05541,0,0,1,9.76465-2.33984v8.46H450.0166q-13.76953,0-13.76953,14.93945V470.1582h-8.19043V420.83789h8.19043v8.01074A15.70358,15.70358,0,0,1,442.41211,422.27832Z"/></svg>