<svg id="Capa_1" data-name="Capa 1" xmlns="http://www.w3.org/2000/svg" viewBox="0 0 916 396"><defs><style>.cls-1,.cls-8{fill:#fff;}.cls-2,.cls-8{opacity:0.5;}.cls-3{fill:#536162;}.cls-4{opacity:0.45;}.cls-5{fill:#323643;}.cls-6{opacity:0.35;}.cls-7{fill:#a09d9d;}</style></defs><title>Demantur_Imagotype-4_White</title><path class="cls-1" d="M70.47638,91.86187,124.66059,14.4788c7.88668-11.26334,20.42634-16.21669,27.86592-11.00744s9.0935,15.80236,3.67537,23.54024L132.01134,61.55927l-49.74415,71.042"/><g class="cls-2"><path class="cls-3" d="M84,130,58.01248,167.09726c-7.88907,11.26167-20.43069,16.21364-27.87027,11.00439s-7.07325-18.68645.81406-29.94935L120,21"/></g><path class="cls-1" d="M82.26719,132.60128,35.00813,200.09422c-7.88667,11.26334-20.42634,16.21668-27.86592,11.00743S.069,192.4152,7.95627,181.1523L97,54"/><path class="cls-1" d="M67.98742,299.70335,7.953,216.41013c-8.03977-11.15458-8.58962-24.6259-1.22188-29.93627s19.97388-.52875,28.01366,10.62582l73.30669,101.70749"/><g class="cls-4"><path class="cls-5" d="M88,271l44.3989,61.707c8.03061,11.16118,8.198,24.06279.372,28.67024s-20.80717-.74926-28.847-11.9038L7,215"/></g><path class="cls-1" d="M108.05146,298.80717l45.66427,63.35572c8.03977,11.15458,8.58962,24.6259,1.22188,29.93627s-19.97392.52877-28.01374-10.62577L30,247"/><path class="cls-1" d="M210.18977,266.31182l49.47082-70.65166c7.88668-11.26334,20.42634-16.21668,27.86592-11.00743s7.0776,18.6895-.80439,29.95612L199,340"/><g class="cls-6"><path class="cls-5" d="M227,300l-32.643,46.53356C186.46067,357.7901,173.925,362.725,166.5,357.5s-7.04855-18.71636.83656-29.9808L251,208"/></g><path class="cls-1" d="M206,330l-35.975,51.28742c-7.896,11.25683-20.44324,16.20485-27.88282,10.9956s-7.07436-18.68724.81159-29.95109L230,238"/><path class="cls-1" d="M231.80689,103.16239l54.90884,76.18186c8.03977,11.15458,8.58962,24.6259,1.22188,29.93627s-19.97388.52875-28.01366-10.62582l-68.77173-95.41558"/><g class="cls-4"><path class="cls-5" d="M191,103,175.531,81.34334,156,54c-2.75-3.85.85-11.5,8-17s19.5892-.88161,27.64266,10.26308L276,164"/></g><path class="cls-1" d="M191.15222,103.23912,150.36159,46.64521,131.03952,19.8373c-2.58736-3.58977,1.32385-10.87171,8.69159-16.18208s19.97442-.52914,28.01485,10.625L249,127"/><path class="cls-1" d="M103.68994,137.01a8.96058,8.96058,0,0,0-8.6499,8.24A9.17141,9.17141,0,0,1,103.68994,137.01ZM95.04,249.75a8.96063,8.96063,0,0,0,8.6499,8.24A9.17146,9.17146,0,0,1,95.04,249.75Z"/><path class="cls-1" d="M211.93994,199.19a58.34725,58.34725,0,0,1-5.65991,25.7,53.82545,53.82545,0,0,1-15.63,19.46,58.77286,58.77286,0,0,1-21.6,10.69q-10.39507,2.64-34.41,2.92a9.15464,9.15464,0,0,0,8.36-9.12v-4.68a9.15858,9.15858,0,0,0-9.15991-9.16H135.98q19.17,0,27.81006-3.61a30.68281,30.68281,0,0,0,14.12988-12.13q5.49024-8.535,5.49-20.99,0-19.185-13.07983-29.76Q158.55493,159,132.49,159H123V146.16a9.15858,9.15858,0,0,0-9.15991-9.16H128.27q32.15991,0,47.80005,6.54a58.05386,58.05386,0,0,1,25.75,21.26Q211.94507,179.53,211.93994,199.19Z"/><path class="cls-7" d="M123,146.16V248.84a9.15863,9.15863,0,0,1-9.15991,9.16h-9.68018c-.15991,0-.31982,0-.47-.01a9.17146,9.17146,0,0,1-8.6499-8.24c-.01-.15-.02-.29-.03-.44S95,249,95,248.84V146.16c0-.16,0-.32.01-.47s.02-.29.03-.44a9.17141,9.17141,0,0,1,8.6499-8.24c.15015-.01.31006-.01.47-.01h9.68018A9.15858,9.15858,0,0,1,123,146.16Z"/><rect class="cls-8" x="108" y="124" width="22" height="48" rx="9.15625" transform="translate(-29 267) rotate(-90)"/><path class="cls-1" d="M143,244.164v4.682c0,4.79213-2.76,8.72383-6.27,9.124q-1.05757.03-2.16.03h-.05255c-3.63-.25011-6.51746-4.25185-6.51746-9.154v-4.682c0-5.0622,3.075-9.164,6.86993-9.164h1.26014C139.925,235,143,239.10176,143,244.164Z"/><path class="cls-1" d="M381.98438,215.93652H320.66406q.69873,11.33936,7.76953,17.71A24.705,24.705,0,0,0,345.584,240.0166q8.25879,0,13.79-3.85058a20.37712,20.37712,0,0,0,7.76953-10.29h13.72071A32.98605,32.98605,0,0,1,368.544,243.86621q-9.24024,6.93018-22.96,6.92969a38.77205,38.77205,0,0,1-19.53027-4.89942A34.67977,34.67977,0,0,1,312.544,231.96582a43.18784,43.18784,0,0,1-4.9004-20.92969,43.81076,43.81076,0,0,1,4.76075-20.86035,33.41891,33.41891,0,0,1,13.37011-13.79,39.7952,39.7952,0,0,1,19.80957-4.83008,38.5207,38.5207,0,0,1,19.32032,4.76075,32.981,32.981,0,0,1,12.95019,13.08984,38.65573,38.65573,0,0,1,4.54981,18.83008A75.15552,75.15552,0,0,1,381.98438,215.93652Zm-15.96-22.89062a20.951,20.951,0,0,0-8.75-7.97949,27.29471,27.29471,0,0,0-12.25-2.73047,23.61544,23.61544,0,0,0-16.45019,6.16015q-6.79248,6.1626-7.77051,17.08008h48.44043A23.51592,23.51592,0,0,0,366.02441,193.0459Z"/><path class="cls-1" d="M507.42285,175.126a26.79374,26.79374,0,0,1,11.05957,11.12988q4.05909,7.42236,4.06055,18.06055v45.21972H509.94238V206.13574q0-11.477-5.66992-17.56933-5.669-6.09082-15.33008-6.08985-9.94189,0-15.81933,6.36914-5.87988,6.37355-5.87989,18.41016v42.28027H454.64258V206.13574q0-11.477-5.66992-17.56933-5.67042-6.09082-15.33008-6.08985-9.94189,0-15.81934,6.36914-5.87988,6.37355-5.88086,18.41016v42.28027H399.20313V172.81641h12.73925V183.876a25.19467,25.19467,0,0,1,10.15039-9.24024,30.74769,30.74769,0,0,1,14.07032-3.21972,33.22243,33.22243,0,0,1,17.08007,4.33984,26.50178,26.50178,0,0,1,11.05957,12.74023,25.16618,25.16618,0,0,1,10.63965-12.59961,31.34289,31.34289,0,0,1,16.52051-4.48046A33.58621,33.58621,0,0,1,507.42285,175.126Z"/><path class="cls-1" d="M543.40332,190.24609a34.54171,34.54171,0,0,1,13.08984-13.79,35.9061,35.9061,0,0,1,18.54981-4.90039,34.05588,34.05588,0,0,1,17.5,4.34082,28.94387,28.94387,0,0,1,11.06055,10.91993v-14H616.4834v76.71972H603.60352V235.25586A30.02073,30.02073,0,0,1,592.333,246.38574a33.71259,33.71259,0,0,1-17.42969,4.41016,34.77042,34.77042,0,0,1-18.48047-5.04,35.31361,35.31361,0,0,1-13.01953-14.13965,44.01333,44.01333,0,0,1-4.76074-20.71973A43.07973,43.07973,0,0,1,543.40332,190.24609Zm56.7002,5.66993a24.75043,24.75043,0,0,0-9.4502-9.87012,26.79928,26.79928,0,0,0-26.11035-.06934,24.37091,24.37091,0,0,0-9.37988,9.79981,31.18731,31.18731,0,0,0-3.5,15.12011,31.90619,31.90619,0,0,0,3.5,15.33008A24.74745,24.74745,0,0,0,564.543,236.166a25.35323,25.35323,0,0,0,13.02051,3.42968,25.73555,25.73555,0,0,0,13.08984-3.42968,24.6208,24.6208,0,0,0,9.4502-9.93946,31.62772,31.62772,0,0,0,3.5-15.19043A31.2204,31.2204,0,0,0,600.10352,195.916Z"/><path class="cls-1" d="M698.10254,179.88574q8.6792,8.47266,8.67969,24.43067v45.21972H694.18262V206.13574q0-11.477-5.74024-17.56933-5.74218-6.09082-15.67968-6.08985-10.0796,0-16.03028,6.29981-5.95166,6.30029-5.95019,18.33984v42.41992H638.043V172.81641h12.73926v10.91992a25.31242,25.31242,0,0,1,10.29-9.10059,31.93227,31.93227,0,0,1,14.35058-3.21972Q689.4209,171.416,698.10254,179.88574Z"/><path class="cls-1" d="M743.18262,183.31641v45.21972q0,5.60157,2.37988,7.91016,2.37891,2.31006,8.25977,2.30957h9.37988v10.78027H751.72266q-10.6421,0-15.96-4.90039-5.32324-4.89843-5.32032-16.09961V183.31641H720.502v-10.5h9.94043V153.49609h12.74024v19.32032h20.01953v10.5Z"/><path class="cls-1" d="M846.64258,172.81641v76.71972H833.90234V238.19629a24.805,24.805,0,0,1-10.15039,9.16992,31.381,31.381,0,0,1-14.34961,3.29,34.38556,34.38556,0,0,1-16.09961-3.71,26.942,26.942,0,0,1-11.2705-11.12988q-4.13087-7.41943-4.12989-18.06055V172.81641H790.502v43.25976q0,11.33936,5.74024,17.42969,5.73925,6.09082,15.67969,6.08984,10.21875,0,16.10058-6.2998,5.87988-6.3003,5.87988-18.33985V172.81641Z"/><path class="cls-1" d="M890.53223,175.05566q6.227-3.63867,15.18945-3.63964v13.16015H902.3623q-21.4204,0-21.42089,23.24024v41.71972H868.20215V172.81641h12.73926v12.46A24.45486,24.45486,0,0,1,890.53223,175.05566Z"/></svg>