<svg id="Capa_1" data-name="Capa 1" xmlns="http://www.w3.org/2000/svg" viewBox="0 0 294 397"><defs><style>.cls-1{fill:#fff;}.cls-2{opacity:0.5;}.cls-3{fill:#536162;}.cls-4{opacity:0.45;}.cls-5{fill:#323643;}.cls-6{opacity:0.35;}</style></defs><title>Logo_Icon-2_White</title><path class="cls-1" d="M70.47638,90.86187,124.66059,13.4788c7.88668-11.26334,20.42634-16.21669,27.86592-11.00744s9.0935,15.80236,3.67537,23.54024L132.01134,60.55927l-49.74415,71.042"/><g class="cls-2"><path class="cls-3" d="M84,129,58.01248,166.09726c-7.88907,11.26167-20.43069,16.21364-27.87027,11.00439s-7.07325-18.68645.81406-29.94935L120,20"/></g><path class="cls-1" d="M82.26719,131.60128,35.00813,199.09422c-7.88667,11.26334-20.42634,16.21668-27.86592,11.00743S.069,191.4152,7.95627,180.1523L97,53"/><path class="cls-1" d="M67.98742,298.70335,7.953,215.41013c-8.03977-11.15458-8.58962-24.6259-1.22188-29.93627s19.97388-.52875,28.01366,10.62582l73.30669,101.70749"/><g class="cls-4"><path class="cls-5" d="M88,270l44.3989,61.707c8.03061,11.16118,8.198,24.06279.372,28.67024s-20.80717-.74926-28.847-11.9038L7,214"/></g><path class="cls-1" d="M108.05146,297.80717l45.66427,63.35572c8.03977,11.15458,8.58962,24.6259,1.22188,29.93627s-19.97392.52877-28.01374-10.62577L30,246"/><path class="cls-1" d="M210.18977,265.31182l49.47082-70.65166c7.88668-11.26334,20.42634-16.21668,27.86592-11.00743s7.0776,18.6895-.80439,29.95612L199,339"/><g class="cls-6"><path class="cls-5" d="M227,299l-32.643,46.53356C186.46067,356.7901,173.925,361.725,166.5,356.5s-7.04855-18.71636.83656-29.9808L251,207"/></g><path class="cls-1" d="M206,329l-35.975,51.28742c-7.896,11.25683-20.44324,16.20485-27.88282,10.9956s-7.07436-18.68724.81159-29.95109L230,237"/><path class="cls-1" d="M231.80689,102.16239l54.90884,76.18186c8.03977,11.15458,8.58962,24.6259,1.22188,29.93627s-19.97388.52875-28.01366-10.62582l-68.77173-95.41558"/><g class="cls-4"><path class="cls-5" d="M191,102,175.531,80.34334,156,53c-2.75-3.85.85-11.5,8-17s19.5892-.88161,27.64266,10.26308L276,163"/></g><path class="cls-1" d="M191.15222,102.23912,150.36159,45.64521,131.03952,18.8373c-2.58736-3.58977,1.32385-10.87171,8.69159-16.18208s19.97442-.52914,28.01485,10.625L249,126"/></svg>