<svg id="Capa_1" data-name="Capa 1" xmlns="http://www.w3.org/2000/svg" viewBox="0 0 299 397"><defs><style>.cls-1,.cls-10{fill:#93deff;}.cls-2{fill:#536162;}.cls-3{opacity:0.47;}.cls-4{fill:#323643;}.cls-5{opacity:0.45;}.cls-6{fill:#606470;}.cls-7{opacity:0.35;}.cls-10,.cls-8{opacity:0.5;}.cls-9{fill:none;}</style></defs><title>Logo_Icon-1</title><path class="cls-1" d="M72.47638,91.86187,126.66059,14.4788c7.88668-11.26334,20.42634-16.21669,27.86592-11.00744s9.0935,15.80236,3.67537,23.54024L134.01134,61.55927l-49.74415,71.042"/><path class="cls-2" d="M84.26719,132.60128,37.00813,200.09422c-7.88667,11.26334-20.42634,16.21668-27.86592,11.00743S2.069,192.4152,9.95627,181.1523L99,54"/><g class="cls-3"><path class="cls-2" d="M86,130,60.01248,167.09726c-7.88907,11.26167-20.43069,16.21364-27.87027,11.00439s-7.07325-18.68645.81406-29.94935L122,21"/></g><path class="cls-2" d="M69.98742,299.70335,9.953,216.41013c-8.03977-11.15458-8.58962-24.6259-1.22188-29.93627s19.97388-.52875,28.01366,10.62582l73.30669,101.70749"/><path class="cls-4" d="M110.05146,298.80717l45.66427,63.35572c8.03977,11.15458,8.58962,24.6259,1.22188,29.93627s-19.97392.52877-28.01374-10.62577L32,247"/><g class="cls-5"><path class="cls-4" d="M90,271l44.3989,61.707c8.03061,11.16118,8.198,24.06279.372,28.67024s-20.80717-.74926-28.847-11.9038L9,215"/></g><path class="cls-6" d="M212.18977,266.31182l49.47082-70.65166c7.88668-11.26334,20.42634-16.21668,27.86592-11.00743s7.0776,18.6895-.80439,29.95612L201,340"/><path class="cls-4" d="M208,330l-35.975,51.28742c-7.896,11.25683-20.44324,16.20485-27.88282,10.9956s-7.07436-18.68724.81159-29.95109L232,238"/><g class="cls-7"><path class="cls-4" d="M229,300l-32.643,46.53356C188.46067,357.7901,175.925,362.725,168.5,357.5s-7.04855-18.71636.83656-29.9808L253,208"/></g><path class="cls-6" d="M233.80689,103.16239l54.90884,76.18186c8.03977,11.15458,8.58962,24.6259,1.22188,29.93627s-19.97388.52875-28.01366-10.62582l-68.77173-95.41558"/><path class="cls-1" d="M193.15222,103.23912,152.36159,46.64521,133.03952,19.8373c-2.58736-3.58977,1.32385-10.87171,8.69159-16.18208s19.97442-.52914,28.01485,10.625L251,127"/><g class="cls-8"><path class="cls-1" d="M193,103,177.531,81.34334,158,54c-2.75-3.85.85-11.5,8-17s19.5892-.88161,27.64266,10.26308L278,164"/></g><path class="cls-9" d="M105.68994,142.01a8.96058,8.96058,0,0,0-8.6499,8.24A9.17141,9.17141,0,0,1,105.68994,142.01ZM97.04,254.75a8.96063,8.96063,0,0,0,8.6499,8.24A9.17146,9.17146,0,0,1,97.04,254.75Z"/><path class="cls-1" d="M213.93994,204.19a58.34725,58.34725,0,0,1-5.65991,25.7,53.82545,53.82545,0,0,1-15.63,19.46,58.77286,58.77286,0,0,1-21.6,10.69q-10.39507,2.64-34.41,2.92a9.15464,9.15464,0,0,0,8.36-9.12v-4.68a9.15858,9.15858,0,0,0-9.15991-9.16H137.98q19.17,0,27.81006-3.61a30.68281,30.68281,0,0,0,14.12988-12.13q5.49024-8.535,5.49-20.99,0-19.185-13.07983-29.76Q160.55493,164,134.49,164H125V151.16a9.15858,9.15858,0,0,0-9.15991-9.16H130.27q32.15991,0,47.80005,6.54a58.05386,58.05386,0,0,1,25.75,21.26Q213.94507,184.53,213.93994,204.19Z"/><path class="cls-2" d="M125,151.16V253.84a9.15863,9.15863,0,0,1-9.15991,9.16h-9.68018c-.15991,0-.31982,0-.47-.01a9.17146,9.17146,0,0,1-8.6499-8.24c-.01-.15-.02-.29-.03-.44S97,254,97,253.84V151.16c0-.16,0-.32.01-.47s.02-.29.03-.44a9.17141,9.17141,0,0,1,8.6499-8.24c.15015-.01.31006-.01.47-.01h9.68018A9.15858,9.15858,0,0,1,125,151.16Z"/><rect class="cls-10" x="110" y="129" width="22" height="48" rx="9.15625" transform="translate(-32 274) rotate(-90)"/><path class="cls-1" d="M145,249.16v4.68c0,4.79-3.31194,8.72-7.524,9.12q-1.26907.03-2.592.03H134.821c-4.356-.25-7.821-4.25-7.821-9.15v-4.68c0-5.06,3.69-9.16,8.24392-9.16h1.51216C141.31,240,145,244.1,145,249.16Z"/><path class="cls-10" d="M130.64,258.96a7.019,7.019,0,0,1-.79992.04h-1.68018c-.12988,0-.2699,0-.3999-.01Q129.23,258.99,130.64,258.96Z"/></svg>