<svg id="Capa_1" data-name="Capa 1" xmlns="http://www.w3.org/2000/svg" viewBox="0 0 294 397"><defs><style>.cls-1,.cls-8{fill:#fff;}.cls-2,.cls-8{opacity:0.5;}.cls-3{fill:#536162;}.cls-4{opacity:0.45;}.cls-5{fill:#323643;}.cls-6{opacity:0.35;}.cls-7{fill:#a09d9d;}</style></defs><title>Logo_Icon-1_White</title><path class="cls-1" d="M70.47638,90.86187,124.66059,13.4788c7.88668-11.26334,20.42634-16.21669,27.86592-11.00744s9.0935,15.80236,3.67537,23.54024L132.01134,60.55927l-49.74415,71.042"/><g class="cls-2"><path class="cls-3" d="M84,129,58.01248,166.09726c-7.88907,11.26167-20.43069,16.21364-27.87027,11.00439s-7.07325-18.68645.81406-29.94935L120,20"/></g><path class="cls-1" d="M82.26719,131.60128,35.00813,199.09422c-7.88667,11.26334-20.42634,16.21668-27.86592,11.00743S.069,191.4152,7.95627,180.1523L97,53"/><path class="cls-1" d="M67.98742,298.70335,7.953,215.41013c-8.03977-11.15458-8.58962-24.6259-1.22188-29.93627s19.97388-.52875,28.01366,10.62582l73.30669,101.70749"/><g class="cls-4"><path class="cls-5" d="M88,270l44.3989,61.707c8.03061,11.16118,8.198,24.06279.372,28.67024s-20.80717-.74926-28.847-11.9038L7,214"/></g><path class="cls-1" d="M108.05146,297.80717l45.66427,63.35572c8.03977,11.15458,8.58962,24.6259,1.22188,29.93627s-19.97392.52877-28.01374-10.62577L30,246"/><path class="cls-1" d="M210.18977,265.31182l49.47082-70.65166c7.88668-11.26334,20.42634-16.21668,27.86592-11.00743s7.0776,18.6895-.80439,29.95612L199,339"/><g class="cls-6"><path class="cls-5" d="M227,299l-32.643,46.53356C186.46067,356.7901,173.925,361.725,166.5,356.5s-7.04855-18.71636.83656-29.9808L251,207"/></g><path class="cls-1" d="M206,329l-35.975,51.28742c-7.896,11.25683-20.44324,16.20485-27.88282,10.9956s-7.07436-18.68724.81159-29.95109L230,237"/><path class="cls-1" d="M231.80689,102.16239l54.90884,76.18186c8.03977,11.15458,8.58962,24.6259,1.22188,29.93627s-19.97388.52875-28.01366-10.62582l-68.77173-95.41558"/><g class="cls-4"><path class="cls-5" d="M191,102,175.531,80.34334,156,53c-2.75-3.85.85-11.5,8-17s19.5892-.88161,27.64266,10.26308L276,163"/></g><path class="cls-1" d="M191.15222,102.23912,150.36159,45.64521,131.03952,18.8373c-2.58736-3.58977,1.32385-10.87171,8.69159-16.18208s19.97442-.52914,28.01485,10.625L249,126"/><path class="cls-1" d="M103.68994,136.01a8.96058,8.96058,0,0,0-8.6499,8.24A9.17141,9.17141,0,0,1,103.68994,136.01ZM95.04,248.75a8.96063,8.96063,0,0,0,8.6499,8.24A9.17146,9.17146,0,0,1,95.04,248.75Z"/><path class="cls-1" d="M211.93994,198.19a58.34725,58.34725,0,0,1-5.65991,25.7,53.82545,53.82545,0,0,1-15.63,19.46,58.77286,58.77286,0,0,1-21.6,10.69q-10.39507,2.64-34.41,2.92a9.15464,9.15464,0,0,0,8.36-9.12v-4.68a9.15858,9.15858,0,0,0-9.15991-9.16H135.98q19.17,0,27.81006-3.61a30.68281,30.68281,0,0,0,14.12988-12.13q5.49024-8.535,5.49-20.99,0-19.185-13.07983-29.76Q158.55493,158,132.49,158H123V145.16a9.15858,9.15858,0,0,0-9.15991-9.16H128.27q32.15991,0,47.80005,6.54a58.05386,58.05386,0,0,1,25.75,21.26Q211.94507,178.53,211.93994,198.19Z"/><path class="cls-7" d="M123,145.16V247.84a9.15863,9.15863,0,0,1-9.15991,9.16h-9.68018c-.15991,0-.31982,0-.47-.01a9.17146,9.17146,0,0,1-8.6499-8.24c-.01-.15-.02-.29-.03-.44S95,248,95,247.84V145.16c0-.16,0-.32.01-.47s.02-.29.03-.44a9.17141,9.17141,0,0,1,8.6499-8.24c.15015-.01.31006-.01.47-.01h9.68018A9.15858,9.15858,0,0,1,123,145.16Z"/><rect class="cls-8" x="108" y="123" width="22" height="48" rx="9.15625" transform="translate(-28 266) rotate(-90)"/><path class="cls-1" d="M143,243.164v4.682c0,4.79213-2.76,8.72383-6.27,9.124q-1.05757.03-2.16.03h-.05255c-3.63-.25011-6.51746-4.25185-6.51746-9.154v-4.682c0-5.0622,3.075-9.164,6.86993-9.164h1.26014C139.925,234,143,238.10176,143,243.164Z"/><rect class="cls-8" x="108" y="124" width="22" height="48" rx="9.15625" transform="translate(-29 267) rotate(-90)"/></svg>