<svg id="Capa_1" data-name="Capa 1" xmlns="http://www.w3.org/2000/svg" viewBox="0 0 299 398"><defs><style>.cls-1{fill:#93deff;}.cls-2{fill:#536162;}.cls-3{opacity:0.47;}.cls-4{fill:#323643;}.cls-5{opacity:0.45;}.cls-6{fill:#606470;}.cls-7{opacity:0.35;}.cls-8{opacity:0.5;}</style></defs><title>Logo_Icon-2</title><path class="cls-1" d="M73.47638,93.86187,127.66059,16.4788C135.54727,5.21546,148.08693.26211,155.52651,5.47136s9.0935,15.80236,3.67537,23.54024L135.01134,63.55927l-49.74415,71.042"/><path class="cls-2" d="M85.26719,134.60128,38.00813,202.09422c-7.88667,11.26334-20.42634,16.21668-27.86592,11.00743S3.069,194.4152,10.95627,183.1523L100,56"/><g class="cls-3"><path class="cls-2" d="M87,132,61.01248,169.09726c-7.88907,11.26167-20.43069,16.21364-27.87027,11.00439s-7.07325-18.68645.81406-29.94935L123,23"/></g><path class="cls-2" d="M70.98742,301.70335,10.953,218.41013c-8.03977-11.15458-8.58962-24.6259-1.22188-29.93627s19.97388-.52875,28.01366,10.62582l73.30669,101.70749"/><path class="cls-4" d="M111.05146,300.80717l45.66427,63.35572c8.03977,11.15458,8.58962,24.6259,1.22188,29.93627s-19.97392.52877-28.01374-10.62577L33,249"/><g class="cls-5"><path class="cls-4" d="M91,273l44.3989,61.707c8.03061,11.16118,8.198,24.06279.372,28.67024s-20.80717-.74926-28.847-11.9038L10,217"/></g><path class="cls-6" d="M213.18977,268.31182l49.47082-70.65166c7.88668-11.26334,20.42634-16.21668,27.86592-11.00743s7.0776,18.6895-.80439,29.95612L202,342"/><path class="cls-4" d="M209,332l-35.975,51.28742c-7.896,11.25683-20.44324,16.20485-27.88282,10.9956s-7.07436-18.68724.81159-29.95109L233,240"/><g class="cls-7"><path class="cls-4" d="M230,302l-32.643,46.53356C189.46067,359.7901,176.925,364.725,169.5,359.5s-7.04855-18.71636.83656-29.9808L254,210"/></g><path class="cls-6" d="M234.80689,105.16239l54.90884,76.18186c8.03977,11.15458,8.58962,24.6259,1.22188,29.93627s-19.97388.52875-28.01366-10.62582l-68.77173-95.41558"/><path class="cls-1" d="M194.15222,105.23912,153.36159,48.64521,134.03952,21.8373c-2.58736-3.58977,1.32385-10.87171,8.69159-16.18208s19.97442-.52914,28.01485,10.625L252,129"/><g class="cls-8"><path class="cls-1" d="M194,105,178.531,83.34334,159,56c-2.75-3.85.85-11.5,8-17s19.5892-.88161,27.64266,10.26308L279,166"/></g></svg>