<svg id="Capa_1" data-name="Capa 1" xmlns="http://www.w3.org/2000/svg" viewBox="0 0 1473 397"><defs><style>.cls-1{fill:#323643;}.cls-2{fill:#93deff;}.cls-3{fill:#536162;}.cls-4{opacity:0.47;}.cls-5{opacity:0.45;}.cls-6{fill:#606470;}.cls-7{opacity:0.35;}.cls-8{opacity:0.5;}</style></defs><title>Demantur_Imagotype-2</title><path class="cls-1" d="M419.69629,137.11914a68.45231,68.45231,0,0,1,29.31152,27.82422q10.188,18.09228,10.19043,42.59375,0,24.50683-10.19043,42.47949a67.20174,67.20174,0,0,1-29.31152,27.47949Q400.57276,287.00147,374.46875,287H324.77539V127.38672h49.69336Q400.5752,127.38672,419.69629,137.11914Zm1.94629,116.332q16.25684-16.36962,16.25879-45.91406,0-29.7671-16.373-46.48731-16.37549-16.7124-47.05957-16.71679H345.61426V269.8252h28.85449Q405.38282,269.8252,421.64258,253.45117Z"/><path class="cls-1" d="M600.48828,232.04H500.18555q1.144,18.54932,12.71,28.96875,11.56055,10.42236,28.05273,10.41894,13.50879,0,22.55664-6.29687a33.34006,33.34006,0,0,0,12.709-16.832h22.44238a53.9483,53.9483,0,0,1-20.15234,29.42676q-15.11427,11.335-37.55567,11.335-17.8623,0-31.94531-8.01465a56.71113,56.71113,0,0,1-22.09863-22.78516q-8.01857-14.77147-8.01563-34.23535,0-19.46191,7.78613-34.12109a54.65176,54.65176,0,0,1,21.87012-22.55664q14.083-7.90137,32.40332-7.90039,17.86231,0,31.60156,7.78613a53.94046,53.94046,0,0,1,21.18262,21.41113,63.22367,63.22367,0,0,1,7.44238,30.80078A122.56864,122.56864,0,0,1,600.48828,232.04Zm-26.10644-37.44141a34.26376,34.26376,0,0,0-14.3125-13.05273,44.63817,44.63817,0,0,0-20.03711-4.46582q-15.80127,0-26.90821,10.07617-11.10937,10.07959-12.709,27.9375h79.23437Q579.64941,203.19043,574.38184,194.59863Z"/><path class="cls-1" d="M805.6709,165.28613a43.82411,43.82411,0,0,1,18.09082,18.20606q6.63867,12.14063,6.64062,29.541V287H809.793V216.00977q0-18.77345-9.27539-28.73926-9.27393-9.96094-25.0752-9.96192-16.26268,0-25.87695,10.41993-9.61816,10.42236-9.61816,30.11328V287H719.33789V216.00977q0-18.77345-9.27441-28.73926-9.2754-9.96094-25.07618-9.96192-16.26269,0-25.87695,10.41993-9.61816,10.42236-9.61816,30.11328V287H628.65332V161.50781h20.83887v18.09082a41.20382,41.20382,0,0,1,16.60254-15.11328,50.28132,50.28132,0,0,1,23.01465-5.26758q15.80125,0,27.93847,7.09961a43.33941,43.33941,0,0,1,18.09082,20.83887A41.16119,41.16119,0,0,1,752.543,166.5459a51.27032,51.27032,0,0,1,27.02148-7.32813A54.93849,54.93849,0,0,1,805.6709,165.28613Z"/><path class="cls-1" d="M864.52344,190.01855a56.49161,56.49161,0,0,1,21.41211-22.55664,58.73076,58.73076,0,0,1,30.34179-8.01464q16.48829,0,28.625,7.09863,12.13623,7.10156,18.09082,17.8623V161.50781h21.06836V287H962.99316V263.6416a49.11,49.11,0,0,1-18.43359,18.20606q-12.25341,7.21288-28.51074,7.21289a56.87923,56.87923,0,0,1-30.22852-8.24317,57.7788,57.7788,0,0,1-21.29687-23.1289q-7.78711-14.88428-7.78614-33.89258Q856.7373,204.55957,864.52344,190.01855Zm92.74511,9.27442a40.47653,40.47653,0,0,0-15.457-16.14453,43.83623,43.83623,0,0,0-42.709-.11426,39.87108,39.87108,0,0,0-15.34277,16.03027q-5.72754,10.53516-5.72559,24.73145,0,14.42724,5.72559,25.07519a40.47523,40.47523,0,0,0,15.34277,16.25977,41.47535,41.47535,0,0,0,21.29687,5.61035,42.10121,42.10121,0,0,0,21.41211-5.61035,40.25971,40.25971,0,0,0,15.457-16.25977q5.72169-10.64795,5.72461-24.8457Q962.99316,209.82813,957.26855,199.293Z"/><path class="cls-1" d="M1117.56738,173.07227q14.19581,13.85888,14.19825,39.96093V287h-20.61036V216.00977q0-18.77345-9.38867-28.73926-9.39258-9.96094-25.64844-9.96192-16.48827,0-26.2207,10.30567-9.73534,10.30518-9.73242,29.999V287h-20.83887V161.50781H1040.165v17.86231a41.38641,41.38641,0,0,1,16.832-14.88477,52.20874,52.20874,0,0,1,23.47266-5.26758Q1103.36524,159.21777,1117.56738,173.07227Z"/><path class="cls-1" d="M1191.30469,178.68262v73.96777q0,9.16113,3.89355,12.93848,3.89063,3.77783,13.51074,3.77832h15.34278V287h-18.77735q-17.40674,0-26.10644-8.01465-8.70556-8.01415-8.70215-26.335V178.68262H1154.207V161.50781h16.25879V129.90625h20.83887v31.60156h32.74707v17.17481Z"/><path class="cls-1" d="M1360.53516,161.50781V287h-20.83887V268.45117a40.56046,40.56046,0,0,1-16.60254,14.999,51.31184,51.31184,0,0,1-23.47266,5.38183,56.24371,56.24371,0,0,1-26.335-6.06836,44.07974,44.07974,0,0,1-18.43457-18.20605q-6.75732-12.13478-6.75488-29.541V161.50781h20.60937v70.76074q0,18.54933,9.38965,28.51075,9.38673,9.9624,25.64746,9.96191,16.71387,0,26.335-10.30566,9.61815-10.30371,9.61816-29.999V161.50781Z"/><path class="cls-1" d="M1432.32617,165.17188q10.188-5.95167,24.84668-5.95411v21.52637h-5.49609q-35.03613,0-35.03711,38.01367V287h-20.83887V161.50781h20.83887v20.38086A39.98866,39.98866,0,0,1,1432.32617,165.17188Z"/><path class="cls-2" d="M76.53317,91.0204l54.18421-77.38307C138.60405,2.374,151.14372-2.57936,158.5833,2.62989s9.0935,15.80235,3.67537,23.54023L138.06813,60.7178,88.324,131.75981"/><path class="cls-3" d="M88.324,131.75981,41.06492,199.25274c-7.88668,11.26334-20.42634,16.21669-27.86592,11.00744s-7.07325-18.68646.81406-29.94935L103.05679,53.15852"/><g class="cls-4"><path class="cls-3" d="M90.05679,129.15852,64.06927,166.25578c-7.88907,11.26167-20.43069,16.21365-27.87027,11.0044s-7.07325-18.68646.81406-29.94935L126.05679,20.15852"/></g><path class="cls-3" d="M74.04421,298.86187,14.00978,215.56865C5.97,204.41407,5.42016,190.94275,12.7879,185.63238s19.97388-.52875,28.01366,10.62583l73.30669,101.70748"/><path class="cls-1" d="M114.10825,297.96569l45.66427,63.35573c8.03977,11.15457,8.58962,24.62589,1.22188,29.93626s-19.97392.52878-28.01374-10.62576L36.05679,246.15852"/><g class="cls-5"><path class="cls-1" d="M94.05679,270.15852l44.3989,61.707c8.03061,11.16118,8.198,24.06279.372,28.67024s-20.80717-.74925-28.847-11.90379L13.05679,214.15852"/></g><path class="cls-6" d="M216.24656,265.47034l49.47082-70.65165c7.88667-11.26334,20.42634-16.21669,27.86592-11.00744s7.0776,18.68951-.80439,29.95613L205.05679,339.15852"/><path class="cls-1" d="M212.05679,329.15852l-35.975,51.28743c-7.896,11.25682-20.44324,16.20484-27.88282,10.99559s-7.07436-18.68724.81158-29.95109l87.04621-124.33193"/><g class="cls-7"><path class="cls-1" d="M233.05679,299.15852l-32.643,46.53357c-7.89638,11.25654-20.43205,16.19143-27.857,10.96643s-7.04855-18.71635.83656-29.98079l83.66344-119.51921"/></g><path class="cls-6" d="M237.86368,102.32091l54.90884,76.18187c8.03977,11.15457,8.58962,24.62589,1.22188,29.93627s-19.97388.52875-28.01366-10.62583L197.209,102.39765"/><path class="cls-2" d="M197.209,102.39765,156.41838,45.80373l-19.32207-26.8079c-2.58736-3.58978,1.32385-10.87171,8.69159-16.18208s19.97442-.52914,28.01485,10.625l81.254,112.71981"/><g class="cls-8"><path class="cls-2" d="M197.05679,102.15852,181.58774,80.50186,162.05679,53.15852c-2.75-3.85.85-11.5,8-17s19.5892-.88161,27.64266,10.26308l84.35734,116.73692"/></g></svg>