<svg id="Capa_1" data-name="Capa 1" xmlns="http://www.w3.org/2000/svg" viewBox="0 0 1473 397"><defs><style>.cls-1{fill:#fff;}.cls-2{opacity:0.5;}.cls-3{fill:#536162;}.cls-4{opacity:0.45;}.cls-5{fill:#323643;}.cls-6{opacity:0.35;}</style></defs><title>Demantur_Imagotype-2_White</title><path class="cls-1" d="M76.47638,92.86187,130.66059,15.4788C138.54727,4.21546,151.08693-.73789,158.52651,4.47136s9.0935,15.80236,3.67537,23.54024L138.01134,62.55927l-49.74415,71.042"/><g class="cls-2"><path class="cls-3" d="M90,131,64.01248,168.09726c-7.88907,11.26167-20.43069,16.21364-27.87027,11.00439s-7.07325-18.68645.81406-29.94935L126,22"/></g><path class="cls-1" d="M88.26719,133.60128,41.00813,201.09422c-7.88667,11.26334-20.42634,16.21668-27.86592,11.00743S6.069,193.4152,13.95627,182.1523L103,55"/><path class="cls-1" d="M73.98742,300.70335,13.953,217.41013c-8.03977-11.15458-8.58962-24.6259-1.22188-29.93627s19.97388-.52875,28.01366,10.62582l73.30669,101.70749"/><g class="cls-4"><path class="cls-5" d="M94,272l44.3989,61.707c8.03061,11.16118,8.198,24.06279.372,28.67024s-20.80717-.74926-28.847-11.9038L13,216"/></g><path class="cls-1" d="M114.05146,299.80717l45.66427,63.35572c8.03977,11.15458,8.58962,24.6259,1.22188,29.93627s-19.97392.52877-28.01374-10.62577L36,248"/><path class="cls-1" d="M216.18977,267.31182l49.47082-70.65166c7.88668-11.26334,20.42634-16.21668,27.86592-11.00743s7.0776,18.6895-.80439,29.95612L205,341"/><g class="cls-6"><path class="cls-5" d="M233,301l-32.643,46.53356C192.46067,358.7901,179.925,363.725,172.5,358.5s-7.04855-18.71636.83656-29.9808L257,209"/></g><path class="cls-1" d="M212,331l-35.975,51.28742c-7.896,11.25683-20.44324,16.20485-27.88282,10.9956s-7.07436-18.68724.81159-29.95109L236,239"/><path class="cls-1" d="M237.80689,104.16239l54.90884,76.18186c8.03977,11.15458,8.58962,24.6259,1.22188,29.93627s-19.97388.52875-28.01366-10.62582l-68.77173-95.41558"/><g class="cls-4"><path class="cls-5" d="M197,104,181.531,82.34334,162,55c-2.75-3.85.85-11.5,8-17s19.5892-.88161,27.64266,10.26308L282,165"/></g><path class="cls-1" d="M197.15222,104.23912,156.36159,47.64521,137.03952,20.8373c-2.58736-3.58977,1.32385-10.87171,8.69159-16.18208s19.97442-.52914,28.01485,10.625L255,128"/><path class="cls-1" d="M419.69629,137.11914a68.45231,68.45231,0,0,1,29.31152,27.82422q10.188,18.09228,10.19043,42.59375,0,24.50683-10.19043,42.47949a67.20174,67.20174,0,0,1-29.31152,27.47949Q400.57276,287.00147,374.46875,287H324.77539V127.38672h49.69336Q400.5752,127.38672,419.69629,137.11914Zm1.94629,116.332q16.25684-16.36962,16.25879-45.91406,0-29.7671-16.373-46.48731-16.37549-16.7124-47.05957-16.71679H345.61426V269.8252h28.85449Q405.38282,269.8252,421.64258,253.45117Z"/><path class="cls-1" d="M600.48828,232.04H500.18555q1.144,18.54932,12.71,28.96875,11.56055,10.42236,28.05273,10.41894,13.50879,0,22.55664-6.29687a33.34006,33.34006,0,0,0,12.709-16.832h22.44238a53.9483,53.9483,0,0,1-20.15234,29.42676q-15.11427,11.335-37.55567,11.335-17.8623,0-31.94531-8.01465a56.71113,56.71113,0,0,1-22.09863-22.78516q-8.01857-14.77147-8.01563-34.23535,0-19.46191,7.78613-34.12109a54.65176,54.65176,0,0,1,21.87012-22.55664q14.083-7.90137,32.40332-7.90039,17.86231,0,31.60156,7.78613a53.94046,53.94046,0,0,1,21.18262,21.41113,63.22367,63.22367,0,0,1,7.44238,30.80078A122.56864,122.56864,0,0,1,600.48828,232.04Zm-26.10644-37.44141a34.26376,34.26376,0,0,0-14.3125-13.05273,44.63817,44.63817,0,0,0-20.03711-4.46582q-15.80127,0-26.90821,10.07617-11.10937,10.07959-12.709,27.9375h79.23437Q579.64941,203.19043,574.38184,194.59863Z"/><path class="cls-1" d="M805.6709,165.28613a43.82411,43.82411,0,0,1,18.09082,18.20606q6.63867,12.14063,6.64062,29.541V287H809.793V216.00977q0-18.77345-9.27539-28.73926-9.27393-9.96094-25.0752-9.96192-16.26268,0-25.87695,10.41993-9.61816,10.42236-9.61816,30.11328V287H719.33789V216.00977q0-18.77345-9.27441-28.73926-9.2754-9.96094-25.07618-9.96192-16.26269,0-25.87695,10.41993-9.61816,10.42236-9.61816,30.11328V287H628.65332V161.50781h20.83887v18.09082a41.20382,41.20382,0,0,1,16.60254-15.11328,50.28132,50.28132,0,0,1,23.01465-5.26758q15.80125,0,27.93847,7.09961a43.33941,43.33941,0,0,1,18.09082,20.83887A41.16119,41.16119,0,0,1,752.543,166.5459a51.27032,51.27032,0,0,1,27.02148-7.32813A54.93849,54.93849,0,0,1,805.6709,165.28613Z"/><path class="cls-1" d="M864.52344,190.01855a56.49161,56.49161,0,0,1,21.41211-22.55664,58.73076,58.73076,0,0,1,30.34179-8.01464q16.48829,0,28.625,7.09863,12.13623,7.10156,18.09082,17.8623V161.50781h21.06836V287H962.99316V263.6416a49.11,49.11,0,0,1-18.43359,18.20606q-12.25341,7.21288-28.51074,7.21289a56.87923,56.87923,0,0,1-30.22852-8.24317,57.7788,57.7788,0,0,1-21.29687-23.1289q-7.78711-14.88428-7.78614-33.89258Q856.7373,204.55957,864.52344,190.01855Zm92.74511,9.27442a40.47653,40.47653,0,0,0-15.457-16.14453,43.83623,43.83623,0,0,0-42.709-.11426,39.87108,39.87108,0,0,0-15.34277,16.03027q-5.72754,10.53516-5.72559,24.73145,0,14.42724,5.72559,25.07519a40.47523,40.47523,0,0,0,15.34277,16.25977,41.47535,41.47535,0,0,0,21.29687,5.61035,42.10121,42.10121,0,0,0,21.41211-5.61035,40.25971,40.25971,0,0,0,15.457-16.25977q5.72169-10.64795,5.72461-24.8457Q962.99316,209.82813,957.26855,199.293Z"/><path class="cls-1" d="M1117.56738,173.07227q14.19581,13.85888,14.19825,39.96093V287h-20.61036V216.00977q0-18.77345-9.38867-28.73926-9.39258-9.96094-25.64844-9.96192-16.48827,0-26.2207,10.30567-9.73534,10.30518-9.73242,29.999V287h-20.83887V161.50781H1040.165v17.86231a41.38641,41.38641,0,0,1,16.832-14.88477,52.20874,52.20874,0,0,1,23.47266-5.26758Q1103.36524,159.21777,1117.56738,173.07227Z"/><path class="cls-1" d="M1191.30469,178.68262v73.96777q0,9.16113,3.89355,12.93848,3.89063,3.77783,13.51074,3.77832h15.34278V287h-18.77735q-17.40674,0-26.10644-8.01465-8.70556-8.01415-8.70215-26.335V178.68262H1154.207V161.50781h16.25879V129.90625h20.83887v31.60156h32.74707v17.17481Z"/><path class="cls-1" d="M1360.53516,161.50781V287h-20.83887V268.45117a40.56046,40.56046,0,0,1-16.60254,14.999,51.31184,51.31184,0,0,1-23.47266,5.38183,56.24371,56.24371,0,0,1-26.335-6.06836,44.07974,44.07974,0,0,1-18.43457-18.20605q-6.75732-12.13478-6.75488-29.541V161.50781h20.60937v70.76074q0,18.54933,9.38965,28.51075,9.38673,9.9624,25.64746,9.96191,16.71387,0,26.335-10.30566,9.61815-10.30371,9.61816-29.999V161.50781Z"/><path class="cls-1" d="M1432.32617,165.17188q10.188-5.95167,24.84668-5.95411v21.52637h-5.49609q-35.03613,0-35.03711,38.01367V287h-20.83887V161.50781h20.83887v20.38086A39.98866,39.98866,0,0,1,1432.32617,165.17188Z"/></svg>