<svg xmlns="http://www.w3.org/2000/svg" width="161.89" height="215.854" viewBox="0 0 161.89 215.854">
  <path id="file-invoice-dollar-solid" d="M161.89,53.963H107.927V0ZM107.927,67.454H161.89V195.617a20.236,20.236,0,0,1-20.236,20.236H20.236A20.239,20.239,0,0,1,0,195.617V20.236A20.236,20.236,0,0,1,20.236,0h74.2l0,53.963A13.474,13.474,0,0,0,107.927,67.454ZM26.982,37.1a3.4,3.4,0,0,0,3.373,3.373H64.082A3.388,3.388,0,0,0,67.454,37.1V30.354a3.391,3.391,0,0,0-3.373-3.373H30.354a3.4,3.4,0,0,0-3.373,3.373Zm3.373,30.354H64.082a3.383,3.383,0,0,0,3.373-3.373V57.336a3.383,3.383,0,0,0-3.373-3.373H30.354a3.391,3.391,0,0,0-3.373,3.373v6.745A3.391,3.391,0,0,0,30.354,67.454ZM83.264,133.56l-2.7-.675c-9.612-2.951-9.4-4.68-9.064-6.2.58-3.293,6.994-4.1,12.762-3.215a43.58,43.58,0,0,1,7.416,2.042,8.436,8.436,0,0,0,5.531-15.94,68.776,68.776,0,0,0-7.825-2.223v-2.8a8.432,8.432,0,1,0-16.864,0v2.526c-9.452,2.027-16.113,7.929-17.631,16.74-3.122,18.061,13.993,23.082,21.3,25.228l2.45.712c12.344,3.531,12.142,4.718,11.771,6.863-.58,3.293-6.994,4.11-12.778,3.215a59.161,59.161,0,0,1-9.975-2.964l-1.884-.685A8.438,8.438,0,0,0,60.158,172.1l1.8.632A87.874,87.874,0,0,0,72.521,175.9v2.85a8.432,8.432,0,0,0,16.864,0v-2.637c9.427-2.021,16.109-7.812,17.635-16.623C110.161,141.232,92.665,136.216,83.264,133.56Z" fill="#606470"/>
</svg>
